<svg xmlns="http://www.w3.org/2000/svg" xmlns:xlink="http://www.w3.org/1999/xlink" xmlns:lucid="lucid" width="1760" height="1360"><g transform="translate(0 0)" lucid:page-tab-id="HWEp-vi-RSFO"><path d="M0 0h1760v1360H0z" fill="#fff"/><path d="M-300-20H60v797h-360z" stroke="#333" stroke-width="2" fill="#fff"/><path d="M-300 17.6H60m-360 305.43H60" stroke="#333" stroke-width="2" fill="none"/><use xlink:href="#a" transform="matrix(1,0,0,1,-292,-12) translate(121.05 14.6)"/><use xlink:href="#b" transform="matrix(1,0,0,1,-292,-12) translate(175 14.6)"/><use xlink:href="#c" transform="matrix(1,0,0,1,-288,25.6) translate(0 49.93658854166669)"/><use xlink:href="#d" transform="matrix(1,0,0,1,-288,25.6) translate(10.95 49.93658854166669)"/><use xlink:href="#e" transform="matrix(1,0,0,1,-288,25.6) translate(93.85000000000001 49.93658854166669)"/><use xlink:href="#c" transform="matrix(1,0,0,1,-288,25.6) translate(0 71.53658854166669)"/><use xlink:href="#f" transform="matrix(1,0,0,1,-288,25.6) translate(10.95 71.53658854166669)"/><use xlink:href="#e" transform="matrix(1,0,0,1,-288,25.6) translate(87.9 71.53658854166669)"/><use xlink:href="#c" transform="matrix(1,0,0,1,-288,25.6) translate(0 93.1365885416667)"/><use xlink:href="#g" transform="matrix(1,0,0,1,-288,25.6) translate(10.95 93.1365885416667)"/><use xlink:href="#h" transform="matrix(1,0,0,1,-288,25.6) translate(54.95 93.1365885416667)"/><use xlink:href="#c" transform="matrix(1,0,0,1,-288,25.6) translate(0 114.7365885416667)"/><use xlink:href="#i" transform="matrix(1,0,0,1,-288,25.6) translate(10.95 114.7365885416667)"/><use xlink:href="#h" transform="matrix(1,0,0,1,-288,25.6) translate(59.85000000000001 114.7365885416667)"/><use xlink:href="#c" transform="matrix(1,0,0,1,-288,25.6) translate(0 136.33658854166669)"/><use xlink:href="#j" transform="matrix(1,0,0,1,-288,25.6) translate(10.95 136.33658854166669)"/><use xlink:href="#k" transform="matrix(1,0,0,1,-288,25.6) translate(149.65 136.33658854166669)"/><use xlink:href="#c" transform="matrix(1,0,0,1,-288,25.6) translate(0 157.93658854166668)"/><use xlink:href="#l" transform="matrix(1,0,0,1,-288,25.6) translate(10.95 157.93658854166668)"/><use xlink:href="#m" transform="matrix(1,0,0,1,-288,25.6) translate(128.65 157.93658854166668)"/><use xlink:href="#c" transform="matrix(1,0,0,1,-288,25.6) translate(0 179.5365885416667)"/><use xlink:href="#n" transform="matrix(1,0,0,1,-288,25.6) translate(10.95 179.5365885416667)"/><use xlink:href="#k" transform="matrix(1,0,0,1,-288,25.6) translate(70.85000000000001 179.5365885416667)"/><use xlink:href="#c" transform="matrix(1,0,0,1,-288,25.6) translate(0 201.13658854166667)"/><use xlink:href="#o" transform="matrix(1,0,0,1,-288,25.6) translate(10.95 201.13658854166667)"/><use xlink:href="#k" transform="matrix(1,0,0,1,-288,25.6) translate(69.8 201.13658854166667)"/><use xlink:href="#c" transform="matrix(1,0,0,1,-288,25.6) translate(0 222.7365885416667)"/><use xlink:href="#p" transform="matrix(1,0,0,1,-288,25.6) translate(10.95 222.7365885416667)"/><use xlink:href="#q" transform="matrix(1,0,0,1,-288,25.6) translate(79.9 222.7365885416667)"/><use xlink:href="#r" transform="matrix(1,0,0,1,-288,25.6) translate(131.8 222.7365885416667)"/><use xlink:href="#s" transform="matrix(1,0,0,1,-288,25.6) translate(147.3 222.7365885416667)"/><use xlink:href="#c" transform="matrix(1,0,0,1,-288,25.6) translate(0 247.2634114583333)"/><use xlink:href="#t" transform="matrix(1,0,0,1,-288,25.6) translate(10.95 247.2634114583333)"/><use xlink:href="#q" transform="matrix(1,0,0,1,-288,25.6) translate(91.85000000000001 247.2634114583333)"/><use xlink:href="#r" transform="matrix(1,0,0,1,-288,25.6) translate(143.75 247.2634114583333)"/><use xlink:href="#u" transform="matrix(1,0,0,1,-288,25.6) translate(159.25 247.2634114583333)"/><g><use xlink:href="#v" transform="matrix(1,0,0,1,-288,331.0268229166667) translate(0 49.799999999999976)"/><use xlink:href="#w" transform="matrix(1,0,0,1,-288,331.0268229166667) translate(15.5 49.799999999999976)"/><use xlink:href="#x" transform="matrix(1,0,0,1,-288,331.0268229166667) translate(94.3 49.799999999999976)"/><use xlink:href="#y" transform="matrix(1,0,0,1,-288,331.0268229166667) translate(104.3 49.799999999999976)"/><use xlink:href="#z" transform="matrix(1,0,0,1,-288,331.0268229166667) translate(156.2 49.799999999999976)"/><use xlink:href="#v" transform="matrix(1,0,0,1,-288,331.0268229166667) translate(0 71.39999999999998)"/><use xlink:href="#A" transform="matrix(1,0,0,1,-288,331.0268229166667) translate(15.5 71.39999999999998)"/><use xlink:href="#y" transform="matrix(1,0,0,1,-288,331.0268229166667) translate(162.25 71.39999999999998)"/><use xlink:href="#z" transform="matrix(1,0,0,1,-288,331.0268229166667) translate(214.15 71.39999999999998)"/><use xlink:href="#v" transform="matrix(1,0,0,1,-288,331.0268229166667) translate(0 92.99999999999999)"/><use xlink:href="#B" transform="matrix(1,0,0,1,-288,331.0268229166667) translate(15.5 92.99999999999999)"/><use xlink:href="#C" transform="matrix(1,0,0,1,-288,331.0268229166667) translate(165.3 92.99999999999999)"/><use xlink:href="#D" transform="matrix(1,0,0,1,-288,331.0268229166667) translate(248.20000000000002 92.99999999999999)"/><use xlink:href="#y" transform="matrix(1,0,0,1,-288,331.0268229166667) translate(0 114.6)"/><use xlink:href="#z" transform="matrix(1,0,0,1,-288,331.0268229166667) translate(51.9 114.6)"/><use xlink:href="#v" transform="matrix(1,0,0,1,-288,331.0268229166667) translate(0 136.2)"/><use xlink:href="#E" transform="matrix(1,0,0,1,-288,331.0268229166667) translate(15.5 136.2)"/><use xlink:href="#F" transform="matrix(1,0,0,1,-288,331.0268229166667) translate(69.45 136.2)"/><use xlink:href="#v" transform="matrix(1,0,0,1,-288,331.0268229166667) translate(0 157.79999999999998)"/><use xlink:href="#G" transform="matrix(1,0,0,1,-288,331.0268229166667) translate(15.5 157.79999999999998)"/><use xlink:href="#H" transform="matrix(1,0,0,1,-288,331.0268229166667) translate(44.5 157.79999999999998)"/><use xlink:href="#v" transform="matrix(1,0,0,1,-288,331.0268229166667) translate(0 179.39999999999998)"/><use xlink:href="#I" transform="matrix(1,0,0,1,-288,331.0268229166667) translate(15.5 179.39999999999998)"/><use xlink:href="#v" transform="matrix(1,0,0,1,-288,331.0268229166667) translate(0 200.99999999999997)"/><use xlink:href="#J" transform="matrix(1,0,0,1,-288,331.0268229166667) translate(15.5 200.99999999999997)"/><use xlink:href="#v" transform="matrix(1,0,0,1,-288,331.0268229166667) translate(0 222.59999999999997)"/><use xlink:href="#K" transform="matrix(1,0,0,1,-288,331.0268229166667) translate(15.5 222.59999999999997)"/><use xlink:href="#v" transform="matrix(1,0,0,1,-288,331.0268229166667) translate(0 244.19999999999996)"/><use xlink:href="#L" transform="matrix(1,0,0,1,-288,331.0268229166667) translate(15.5 244.19999999999996)"/><use xlink:href="#v" transform="matrix(1,0,0,1,-288,331.0268229166667) translate(0 265.79999999999995)"/><use xlink:href="#M" transform="matrix(1,0,0,1,-288,331.0268229166667) translate(15.5 265.79999999999995)"/><use xlink:href="#c" transform="matrix(1,0,0,1,-288,331.0268229166667) translate(0 287.3999999999999)"/><use xlink:href="#N" transform="matrix(1,0,0,1,-288,331.0268229166667) translate(10.95 287.3999999999999)"/><use xlink:href="#O" transform="matrix(1,0,0,1,-288,331.0268229166667) translate(0 308.99999999999994)"/><use xlink:href="#P" transform="matrix(1,0,0,1,-288,331.0268229166667) translate(25 308.99999999999994)"/><use xlink:href="#Q" transform="matrix(1,0,0,1,-288,331.0268229166667) translate(198.70000000000002 308.99999999999994)"/><use xlink:href="#v" transform="matrix(1,0,0,1,-288,331.0268229166667) translate(0 330.59999999999997)"/><use xlink:href="#R" transform="matrix(1,0,0,1,-288,331.0268229166667) translate(15.5 330.59999999999997)"/><use xlink:href="#y" transform="matrix(1,0,0,1,-288,331.0268229166667) translate(157 330.59999999999997)"/><use xlink:href="#z" transform="matrix(1,0,0,1,-288,331.0268229166667) translate(208.9 330.59999999999997)"/><use xlink:href="#v" transform="matrix(1,0,0,1,-288,331.0268229166667) translate(0 352.2)"/><use xlink:href="#S" transform="matrix(1,0,0,1,-288,331.0268229166667) translate(15.5 352.2)"/><use xlink:href="#T" transform="matrix(1,0,0,1,-288,331.0268229166667) translate(0 373.8)"/><use xlink:href="#U" transform="matrix(1,0,0,1,-288,331.0268229166667) translate(0 395.40000000000003)"/></g><path d="M-300-20H60v40h-360z" stroke="#333" stroke-width="2" fill="#fc9432"/><g><use xlink:href="#V" transform="matrix(1,0,0,1,-295,-15) translate(159.575 18.6)"/></g><path d="M440-20h360v448H440z" stroke="#333" stroke-width="2" fill="#fff"/><path d="M440 17.6h360M440 190.5h360" stroke="#333" stroke-width="2" fill="none"/><g><use xlink:href="#a" transform="matrix(1,0,0,1,447.99999999999994,-12) translate(121.05 14.6)"/><use xlink:href="#b" transform="matrix(1,0,0,1,447.99999999999994,-12) translate(175 14.6)"/></g><g><use xlink:href="#c" transform="matrix(1,0,0,1,451.99999999999994,25.6) translate(0 49.69999999999999)"/><use xlink:href="#W" transform="matrix(1,0,0,1,451.99999999999994,25.6) translate(10.95 49.69999999999999)"/><use xlink:href="#X" transform="matrix(1,0,0,1,451.99999999999994,25.6) translate(65.85 49.69999999999999)"/><use xlink:href="#c" transform="matrix(1,0,0,1,451.99999999999994,25.6) translate(0 71.3)"/><use xlink:href="#g" transform="matrix(1,0,0,1,451.99999999999994,25.6) translate(10.95 71.3)"/><use xlink:href="#h" transform="matrix(1,0,0,1,451.99999999999994,25.6) translate(54.95 71.3)"/><use xlink:href="#Y" transform="matrix(1,0,0,1,451.99999999999994,25.6) translate(0 92.9)"/><use xlink:href="#h" transform="matrix(1,0,0,1,451.99999999999994,25.6) translate(59.85 92.9)"/><use xlink:href="#Z" transform="matrix(1,0,0,1,451.99999999999994,25.6) translate(0 114.5)"/></g><g><use xlink:href="#v" transform="matrix(1,0,0,1,451.99999999999994,198.50000000000003) translate(0 49.800000000000004)"/><use xlink:href="#aa" transform="matrix(1,0,0,1,451.99999999999994,198.50000000000003) translate(15.5 49.800000000000004)"/><use xlink:href="#y" transform="matrix(1,0,0,1,451.99999999999994,198.50000000000003) translate(197.1 49.800000000000004)"/><use xlink:href="#k" transform="matrix(1,0,0,1,451.99999999999994,198.50000000000003) translate(249 49.800000000000004)"/><use xlink:href="#v" transform="matrix(1,0,0,1,451.99999999999994,198.50000000000003) translate(0 71.4)"/><use xlink:href="#ab" transform="matrix(1,0,0,1,451.99999999999994,198.50000000000003) translate(15.5 71.4)"/><use xlink:href="#v" transform="matrix(1,0,0,1,451.99999999999994,198.50000000000003) translate(0 93.00000000000001)"/><use xlink:href="#ac" transform="matrix(1,0,0,1,451.99999999999994,198.50000000000003) translate(15.5 93.00000000000001)"/><use xlink:href="#y" transform="matrix(1,0,0,1,451.99999999999994,198.50000000000003) translate(200.84999999999994 93.00000000000001)"/><use xlink:href="#z" transform="matrix(1,0,0,1,451.99999999999994,198.50000000000003) translate(252.74999999999994 93.00000000000001)"/><use xlink:href="#v" transform="matrix(1,0,0,1,451.99999999999994,198.50000000000003) translate(0 114.60000000000002)"/><use xlink:href="#ad" transform="matrix(1,0,0,1,451.99999999999994,198.50000000000003) translate(15.5 114.60000000000002)"/><use xlink:href="#ae" transform="matrix(1,0,0,1,451.99999999999994,198.50000000000003) translate(125.15 114.60000000000002)"/><use xlink:href="#af" transform="matrix(1,0,0,1,451.99999999999994,198.50000000000003) translate(243.85000000000002 114.60000000000002)"/><use xlink:href="#k" transform="matrix(1,0,0,1,451.99999999999994,198.50000000000003) translate(0 136.20000000000002)"/><use xlink:href="#v" transform="matrix(1,0,0,1,451.99999999999994,198.50000000000003) translate(0 157.8)"/><use xlink:href="#ag" transform="matrix(1,0,0,1,451.99999999999994,198.50000000000003) translate(15.5 157.8)"/><use xlink:href="#y" transform="matrix(1,0,0,1,451.99999999999994,198.50000000000003) translate(198.09999999999994 157.8)"/><use xlink:href="#ah" transform="matrix(1,0,0,1,451.99999999999994,198.50000000000003) translate(249.99999999999994 157.8)"/><use xlink:href="#Z" transform="matrix(1,0,0,1,451.99999999999994,198.50000000000003) translate(0 179.4)"/></g><path d="M440-20h360v40H440z" stroke="#333" stroke-width="2" fill="#54c45e"/><g><use xlink:href="#ai" transform="matrix(1,0,0,1,445,-15) translate(149.575 18.6)"/></g><path d="M61.5 378.5h252a12 12 0 0 0 12-12V151.92a12 12 0 0 1 12-12h85.12" stroke="#333" fill="none"/><path d="M61.5 379H61v-1h.5z" stroke="#333" stroke-width=".05" fill="#333"/><path d="M437.38 139.92l-14.26 4.64v-9.27z" stroke="#333" fill="#333"/><path d="M410 120l30 20-30 20-30-20z" stroke="#333" stroke-width="2" fill="#fff"/><defs><path fill="#333" d="M143 4C61 4 22-44 18-125c-5-107 100-154 193-111 17 8 29 25 37 43l-32 9c-13-25-37-40-76-40-61 0-88 39-88 99 0 61 29 100 91 101 35 0 62-11 79-27v-45h-74v-28h105v86C228-13 192 4 143 4" id="aj"/><path fill="#333" d="M141-36C126-15 110 5 73 4 37 3 15-17 15-53c-1-64 63-63 125-63 3-35-9-54-41-54-24 1-41 7-42 31l-33-3c5-37 33-52 76-52 45 0 72 20 72 64v82c-1 20 7 32 28 27v20c-31 9-61-2-59-35zM48-53c0 20 12 33 32 33 41-3 63-29 60-74-43 2-92-5-92 41" id="ak"/><path fill="#333" d="M210-169c-67 3-38 105-44 169h-31v-121c0-29-5-50-35-48C34-165 62-65 56 0H25l-1-190h30c1 10-1 24 2 32 10-44 99-50 107 0 11-21 27-35 58-36 85-2 47 119 55 194h-31v-121c0-29-5-49-35-48" id="al"/><path fill="#333" d="M100-194c63 0 86 42 84 106H49c0 40 14 67 53 68 26 1 43-12 49-29l28 8c-11 28-37 45-77 45C44 4 14-33 15-96c1-61 26-98 85-98zm52 81c6-60-76-77-97-28-3 7-6 17-6 28h103" id="am"/><g id="a"><use transform="matrix(0.05,0,0,0.05,0,0)" xlink:href="#aj"/><use transform="matrix(0.05,0,0,0.05,14,0)" xlink:href="#ak"/><use transform="matrix(0.05,0,0,0.05,24,0)" xlink:href="#al"/><use transform="matrix(0.05,0,0,0.05,38.95,0)" xlink:href="#am"/></g><path fill="#333" d="M160-131c35 5 61 23 61 61C221 17 115-2 30 0v-248c76 3 177-17 177 60 0 33-19 50-47 57zm-97-11c50-1 110 9 110-42 0-47-63-36-110-37v79zm0 115c55-2 124 14 124-45 0-56-70-42-124-44v89" id="an"/><path fill="#333" d="M100-194c62-1 85 37 85 99 1 63-27 99-86 99S16-35 15-95c0-66 28-99 85-99zM99-20c44 1 53-31 53-75 0-43-8-75-51-75s-53 32-53 75 10 74 51 75" id="ao"/><path fill="#333" d="M114-163C36-179 61-72 57 0H25l-1-190h30c1 12-1 29 2 39 6-27 23-49 58-41v29" id="ap"/><path fill="#333" d="M85-194c31 0 48 13 60 33l-1-100h32l1 261h-30c-2-10 0-23-3-31C134-8 116 4 85 4 32 4 16-35 15-94c0-66 23-100 70-100zm9 24c-40 0-46 34-46 75 0 40 6 74 45 74 42 0 51-32 51-76 0-42-9-74-50-73" id="aq"/><g id="b"><use transform="matrix(0.05,0,0,0.05,0,0)" xlink:href="#an"/><use transform="matrix(0.05,0,0,0.05,12,0)" xlink:href="#ao"/><use transform="matrix(0.05,0,0,0.05,22,0)" xlink:href="#ak"/><use transform="matrix(0.05,0,0,0.05,32,0)" xlink:href="#ap"/><use transform="matrix(0.05,0,0,0.05,37.95,0)" xlink:href="#aq"/></g><path fill="#333" d="M16-82v-28h88v28H16" id="ar"/><use transform="matrix(0.05,0,0,0.05,0,0)" xlink:href="#ar" id="c"/><path fill="#333" d="M206 0h-36l-40-164L89 0H53L-1-190h32L70-26l43-164h34l41 164 42-164h31" id="as"/><path fill="#333" d="M33 0v-248h34V0H33" id="at"/><path fill="#333" d="M117-194c89-4 53 116 60 194h-32v-121c0-31-8-49-39-48C34-167 62-67 57 0H25l-1-190h30c1 10-1 24 2 32 11-22 29-35 61-36" id="au"/><path fill="#333" d="M141 0L90-78 38 0H4l68-98-65-92h35l48 74 47-74h35l-64 92 68 98h-35" id="av"/><path fill="#333" d="M33-154v-36h34v36H33zM33 0v-36h34V0H33" id="aw"/><g id="d"><use transform="matrix(0.05,0,0,0.05,0,0)" xlink:href="#ap"/><use transform="matrix(0.05,0,0,0.05,5.95,0)" xlink:href="#ao"/><use transform="matrix(0.05,0,0,0.05,15.949999999999998,0)" xlink:href="#as"/><use transform="matrix(0.05,0,0,0.05,28.899999999999995,0)" xlink:href="#at"/><use transform="matrix(0.05,0,0,0.05,33.9,0)" xlink:href="#au"/><use transform="matrix(0.05,0,0,0.05,43.9,0)" xlink:href="#aq"/><use transform="matrix(0.05,0,0,0.05,53.900000000000006,0)" xlink:href="#am"/><use transform="matrix(0.05,0,0,0.05,63.900000000000006,0)" xlink:href="#av"/><use transform="matrix(0.05,0,0,0.05,72.9,0)" xlink:href="#aw"/></g><path fill="#333" d="M24-231v-30h32v30H24zM24 0v-190h32V0H24" id="ax"/><path fill="#333" d="M59-47c-2 24 18 29 38 22v24C64 9 27 4 27-40v-127H5v-23h24l9-43h21v43h35v23H59v120" id="ay"/><g id="e"><use transform="matrix(0.05,0,0,0.05,0,0)" xlink:href="#ax"/><use transform="matrix(0.05,0,0,0.05,3.95,0)" xlink:href="#au"/><use transform="matrix(0.05,0,0,0.05,13.949999999999998,0)" xlink:href="#ay"/></g><path fill="#333" d="M96-169c-40 0-48 33-48 73s9 75 48 75c24 0 41-14 43-38l32 2c-6 37-31 61-74 61-59 0-76-41-82-99-10-93 101-131 147-64 4 7 5 14 7 22l-32 3c-4-21-16-35-41-35" id="az"/><path fill="#333" d="M24 0v-261h32V0H24" id="aA"/><g id="f"><use transform="matrix(0.05,0,0,0.05,0,0)" xlink:href="#az"/><use transform="matrix(0.05,0,0,0.05,9,0)" xlink:href="#ao"/><use transform="matrix(0.05,0,0,0.05,19,0)" xlink:href="#aA"/><use transform="matrix(0.05,0,0,0.05,22.95,0)" xlink:href="#at"/><use transform="matrix(0.05,0,0,0.05,27.950000000000003,0)" xlink:href="#au"/><use transform="matrix(0.05,0,0,0.05,37.95,0)" xlink:href="#aq"/><use transform="matrix(0.05,0,0,0.05,47.95,0)" xlink:href="#am"/><use transform="matrix(0.05,0,0,0.05,57.95,0)" xlink:href="#av"/><use transform="matrix(0.05,0,0,0.05,66.95,0)" xlink:href="#aw"/></g><path fill="#333" d="M179-190L93 31C79 59 56 82 12 73V49c39 6 53-20 64-50L1-190h34L92-34l54-156h33" id="aB"/><path fill="#333" d="M115-194c55 1 70 41 70 98S169 2 115 4C84 4 66-9 55-30l1 105H24l-1-265h31l2 30c10-21 28-34 59-34zm-8 174c40 0 45-34 45-75s-6-73-45-74c-42 0-51 32-51 76 0 43 10 73 51 73" id="aC"/><g id="g"><use transform="matrix(0.05,0,0,0.05,0,0)" xlink:href="#ay"/><use transform="matrix(0.05,0,0,0.05,5,0)" xlink:href="#aB"/><use transform="matrix(0.05,0,0,0.05,14,0)" xlink:href="#aC"/><use transform="matrix(0.05,0,0,0.05,24,0)" xlink:href="#am"/><use transform="matrix(0.05,0,0,0.05,34,0)" xlink:href="#aw"/></g><path fill="#333" d="M106-169C34-169 62-67 57 0H25v-261h32l-1 103c12-21 28-36 61-36 89 0 53 116 60 194h-32v-121c2-32-8-49-39-48" id="aD"/><g id="h"><use transform="matrix(0.05,0,0,0.05,0,0)" xlink:href="#az"/><use transform="matrix(0.05,0,0,0.05,9,0)" xlink:href="#aD"/><use transform="matrix(0.05,0,0,0.05,19,0)" xlink:href="#ak"/><use transform="matrix(0.05,0,0,0.05,29,0)" xlink:href="#ap"/></g><g id="i"><use transform="matrix(0.05,0,0,0.05,0,0)" xlink:href="#az"/><use transform="matrix(0.05,0,0,0.05,9,0)" xlink:href="#ao"/><use transform="matrix(0.05,0,0,0.05,19,0)" xlink:href="#aA"/><use transform="matrix(0.05,0,0,0.05,22.95,0)" xlink:href="#ao"/><use transform="matrix(0.05,0,0,0.05,32.95,0)" xlink:href="#ap"/><use transform="matrix(0.05,0,0,0.05,38.900000000000006,0)" xlink:href="#aw"/></g><path fill="#333" d="M9 0v-24l116-142H16v-24h144v24L44-24h123V0H9" id="aE"/><path fill="#333" d="M63-220v92h138v28H63V0H30v-248h175v28H63" id="aF"/><path fill="#333" d="M177-190C167-65 218 103 67 71c-23-6-38-20-44-43l32-5c15 47 100 32 89-28v-30C133-14 115 1 83 1 29 1 15-40 15-95c0-56 16-97 71-98 29-1 48 16 59 35 1-10 0-23 2-32h30zM94-22c36 0 50-32 50-73 0-42-14-75-50-75-39 0-46 34-46 75s6 73 46 73" id="aG"/><path fill="#333" d="M84 4C-5 8 30-112 23-190h32v120c0 31 7 50 39 49 72-2 45-101 50-169h31l1 190h-30c-1-10 1-25-2-33-11 22-28 36-60 37" id="aH"/><g id="j"><use transform="matrix(0.05,0,0,0.05,0,0)" xlink:href="#aD"/><use transform="matrix(0.05,0,0,0.05,10,0)" xlink:href="#ao"/><use transform="matrix(0.05,0,0,0.05,20,0)" xlink:href="#ap"/><use transform="matrix(0.05,0,0,0.05,25.950000000000003,0)" xlink:href="#ax"/><use transform="matrix(0.05,0,0,0.05,29.899999999999995,0)" xlink:href="#aE"/><use transform="matrix(0.05,0,0,0.05,38.9,0)" xlink:href="#ao"/><use transform="matrix(0.05,0,0,0.05,48.9,0)" xlink:href="#au"/><use transform="matrix(0.05,0,0,0.05,58.900000000000006,0)" xlink:href="#ay"/><use transform="matrix(0.05,0,0,0.05,63.900000000000006,0)" xlink:href="#ak"/><use transform="matrix(0.05,0,0,0.05,73.9,0)" xlink:href="#aA"/><use transform="matrix(0.05,0,0,0.05,77.85000000000001,0)" xlink:href="#aF"/><use transform="matrix(0.05,0,0,0.05,88.80000000000001,0)" xlink:href="#ax"/><use transform="matrix(0.05,0,0,0.05,92.75000000000001,0)" xlink:href="#aG"/><use transform="matrix(0.05,0,0,0.05,102.75,0)" xlink:href="#aH"/><use transform="matrix(0.05,0,0,0.05,112.75,0)" xlink:href="#ap"/><use transform="matrix(0.05,0,0,0.05,118.7,0)" xlink:href="#am"/><use transform="matrix(0.05,0,0,0.05,128.70000000000002,0)" xlink:href="#aw"/></g><g id="k"><use transform="matrix(0.05,0,0,0.05,0,0)" xlink:href="#aF"/><use transform="matrix(0.05,0,0,0.05,10.950000000000001,0)" xlink:href="#ax"/><use transform="matrix(0.05,0,0,0.05,14.9,0)" xlink:href="#aG"/><use transform="matrix(0.05,0,0,0.05,24.900000000000002,0)" xlink:href="#aH"/><use transform="matrix(0.05,0,0,0.05,34.900000000000006,0)" xlink:href="#ap"/><use transform="matrix(0.05,0,0,0.05,40.85000000000001,0)" xlink:href="#am"/></g><path fill="#333" d="M108 0H70L1-190h34L89-25l56-165h34" id="aI"/><g id="l"><use transform="matrix(0.05,0,0,0.05,0,0)" xlink:href="#aI"/><use transform="matrix(0.05,0,0,0.05,9,0)" xlink:href="#am"/><use transform="matrix(0.05,0,0,0.05,19,0)" xlink:href="#ap"/><use transform="matrix(0.05,0,0,0.05,24.95,0)" xlink:href="#ay"/><use transform="matrix(0.05,0,0,0.05,29.950000000000003,0)" xlink:href="#ax"/><use transform="matrix(0.05,0,0,0.05,33.9,0)" xlink:href="#az"/><use transform="matrix(0.05,0,0,0.05,42.9,0)" xlink:href="#ak"/><use transform="matrix(0.05,0,0,0.05,52.900000000000006,0)" xlink:href="#aA"/><use transform="matrix(0.05,0,0,0.05,56.85,0)" xlink:href="#aF"/><use transform="matrix(0.05,0,0,0.05,67.8,0)" xlink:href="#ax"/><use transform="matrix(0.05,0,0,0.05,71.75,0)" xlink:href="#aG"/><use transform="matrix(0.05,0,0,0.05,81.75,0)" xlink:href="#aH"/><use transform="matrix(0.05,0,0,0.05,91.75,0)" xlink:href="#ap"/><use transform="matrix(0.05,0,0,0.05,97.7,0)" xlink:href="#am"/><use transform="matrix(0.05,0,0,0.05,107.7,0)" xlink:href="#aw"/></g><g id="m"><use transform="matrix(0.05,0,0,0.05,0,0)" xlink:href="#aF"/><use transform="matrix(0.05,0,0,0.05,10.950000000000001,0)" xlink:href="#ax"/><use transform="matrix(0.05,0,0,0.05,14.9,0)" xlink:href="#aG"/><use transform="matrix(0.05,0,0,0.05,24.900000000000002,0)" xlink:href="#aH"/><use transform="matrix(0.05,0,0,0.05,34.900000000000006,0)" xlink:href="#ap"/><use transform="matrix(0.05,0,0,0.05,40.85000000000001,0)" xlink:href="#am"/></g><path fill="#333" d="M101-234c-31-9-42 10-38 44h38v23H63V0H32v-167H5v-23h27c-7-52 17-82 69-68v24" id="aJ"/><g id="n"><use transform="matrix(0.05,0,0,0.05,0,0)" xlink:href="#ay"/><use transform="matrix(0.05,0,0,0.05,5,0)" xlink:href="#aJ"/><use transform="matrix(0.05,0,0,0.05,10,0)" xlink:href="#ax"/><use transform="matrix(0.05,0,0,0.05,13.949999999999998,0)" xlink:href="#aG"/><use transform="matrix(0.05,0,0,0.05,23.95,0)" xlink:href="#aH"/><use transform="matrix(0.05,0,0,0.05,33.95,0)" xlink:href="#ap"/><use transform="matrix(0.05,0,0,0.05,39.900000000000006,0)" xlink:href="#am"/><use transform="matrix(0.05,0,0,0.05,49.900000000000006,0)" xlink:href="#aw"/></g><g id="o"><use transform="matrix(0.05,0,0,0.05,0,0)" xlink:href="#aA"/><use transform="matrix(0.05,0,0,0.05,3.95,0)" xlink:href="#aJ"/><use transform="matrix(0.05,0,0,0.05,8.95,0)" xlink:href="#ax"/><use transform="matrix(0.05,0,0,0.05,12.899999999999999,0)" xlink:href="#aG"/><use transform="matrix(0.05,0,0,0.05,22.9,0)" xlink:href="#aH"/><use transform="matrix(0.05,0,0,0.05,32.9,0)" xlink:href="#ap"/><use transform="matrix(0.05,0,0,0.05,38.85,0)" xlink:href="#am"/><use transform="matrix(0.05,0,0,0.05,48.85,0)" xlink:href="#aw"/></g><path fill="#333" d="M127-220V0H93v-220H8v-28h204v28h-85" id="aK"/><path fill="#333" d="M137-103V0h-34v-103L8-248h37l75 118 75-118h37" id="aL"/><path fill="#333" d="M30-248c87 1 191-15 191 75 0 78-77 80-158 76V0H30v-248zm33 125c57 0 124 11 124-50 0-59-68-47-124-48v98" id="aM"/><path fill="#333" d="M30 0v-248h187v28H63v79h144v27H63v87h162V0H30" id="aN"/><path fill="#333" d="M185-189c-5-48-123-54-124 2 14 75 158 14 163 119 3 78-121 87-175 55-17-10-28-26-33-46l33-7c5 56 141 63 141-1 0-78-155-14-162-118-5-82 145-84 179-34 5 7 8 16 11 25" id="aO"/><g id="p"><use transform="matrix(0.05,0,0,0.05,0,0)" xlink:href="#aK"/><use transform="matrix(0.05,0,0,0.05,10.950000000000001,0)" xlink:href="#aL"/><use transform="matrix(0.05,0,0,0.05,22.950000000000003,0)" xlink:href="#aM"/><use transform="matrix(0.05,0,0,0.05,34.95,0)" xlink:href="#aN"/><use transform="matrix(0.05,0,0,0.05,46.95,0)" xlink:href="#aO"/><use transform="matrix(0.05,0,0,0.05,58.95,0)" xlink:href="#aw"/></g><g id="q"><use transform="matrix(0.05,0,0,0.05,0,0)" xlink:href="#aO"/><use transform="matrix(0.05,0,0,0.05,12,0)" xlink:href="#ay"/><use transform="matrix(0.05,0,0,0.05,17,0)" xlink:href="#ap"/><use transform="matrix(0.05,0,0,0.05,22.95,0)" xlink:href="#ax"/><use transform="matrix(0.05,0,0,0.05,26.899999999999995,0)" xlink:href="#au"/><use transform="matrix(0.05,0,0,0.05,36.9,0)" xlink:href="#aG"/></g><path fill="#333" d="M18-150v-26h174v26H18zm0 90v-26h174v26H18" id="aP"/><use transform="matrix(0.05,0,0,0.05,0,0)" xlink:href="#aP" id="r"/><path fill="#333" d="M77-214v-33h29v33H77zm-69 0v-33h29v33H8" id="aQ"/><path fill="#333" d="M233-177c-1 41-23 64-60 70L243 0h-38l-65-103H63V0H30v-248c88 3 205-21 203 71zM63-129c60-2 137 13 137-47 0-61-80-42-137-45v92" id="aR"/><path fill="#333" d="M137 0h-34L2-248h35l83 218 83-218h36" id="aS"/><path fill="#333" d="M197 0v-115H63V0H30v-248h33v105h134v-105h34V0h-34" id="aT"/><path fill="#333" d="M266 0h-40l-56-210L115 0H75L2-248h35L96-30l15-64 43-154h32l59 218 59-218h35" id="aU"/><g id="s"><use transform="matrix(0.05,0,0,0.05,0,0)" xlink:href="#aQ"/><use transform="matrix(0.05,0,0,0.05,5.95,0)" xlink:href="#aR"/><use transform="matrix(0.05,0,0,0.05,18.55,0)" xlink:href="#aS"/><use transform="matrix(0.05,0,0,0.05,30.55,0)" xlink:href="#aT"/><use transform="matrix(0.05,0,0,0.05,43.5,0)" xlink:href="#aU"/><use transform="matrix(0.05,0,0,0.05,60.45,0)" xlink:href="#an"/><use transform="matrix(0.05,0,0,0.05,72.45,0)" xlink:href="#aQ"/></g><path fill="#333" d="M212-179c-10-28-35-45-73-45-59 0-87 40-87 99 0 60 29 101 89 101 43 0 62-24 78-52l27 14C228-24 195 4 139 4 59 4 22-46 18-125c-6-104 99-153 187-111 19 9 31 26 39 46" id="aV"/><path fill="#333" d="M140-251c81 0 123 46 123 126C263-46 219 4 140 4 59 4 17-45 17-125s42-126 123-126zm0 227c63 0 89-41 89-101s-29-99-89-99c-61 0-89 39-89 99S79-25 140-24" id="aW"/><path fill="#333" d="M30 0v-248h33v221h125V0H30" id="aX"/><g id="t"><use transform="matrix(0.05,0,0,0.05,0,0)" xlink:href="#aV"/><use transform="matrix(0.05,0,0,0.05,12.950000000000001,0)" xlink:href="#aW"/><use transform="matrix(0.05,0,0,0.05,26.950000000000003,0)" xlink:href="#aX"/><use transform="matrix(0.05,0,0,0.05,36.95,0)" xlink:href="#aW"/><use transform="matrix(0.05,0,0,0.05,50.95,0)" xlink:href="#aR"/><use transform="matrix(0.05,0,0,0.05,63.900000000000006,0)" xlink:href="#aO"/></g><path d="M522-1462l-41 528H326l-41-528h237zm422 0l-41 528H748l-41-528h237" id="aY"/><path d="M758 0H582c3-449-8-824 8-1274-61 68-188 168-268 234l-97-123 383-299h150V0" id="aZ"/><path d="M594-1483c248 0 420 149 418 391 0 79-21 160-59 244-73 161-414 504-572 674v8h688V0H158v-156c172-193 489-508 607-698 43-69 62-147 62-231 0-146-91-244-235-244-107 0-213 46-318 137l-102-119c128-115 269-172 422-172" id="ba"/><path d="M1010-1120c0 200-132 322-316 350v6c241 31 361 147 361 348 0 294-219 436-537 436-161 0-290-26-387-79v-170c123 64 250 96 383 96 236 0 354-96 354-289 0-172-127-258-381-258H354v-151h133c195 4 334-97 336-277 1-140-106-221-250-221-119 0-233 40-344 121l-92-125c125-100 270-150 436-150 252 0 437 128 437 363" id="bb"/><path d="M1126-328H913V0H737v-328H61v-159l664-983h188v976h213v166zM737-494c1-292-4-481 13-788h-9c-24 68-55 128-90 180L240-494h497" id="bc"/><path d="M1055-469c0 318-203 489-527 489-149 0-268-26-356-79v-172c96 64 216 96 360 96 224 0 336-105 336-314 0-196-115-294-344-294-59 0-136 9-231 26l-90-57 55-688h690v166H416l-39 419c71-13 141-20 209-20 270-4 469 161 469 428" id="bd"/><path d="M1075-471c0 288-166 493-444 491-145 0-261-56-347-168S154-420 154-625c0-572 213-858 639-858 69 0 127 6 172 19v155c-47-16-103-24-166-24-149 0-262 47-337 141S347-949 340-745h12c63-113 166-170 307-170 262 0 416 178 416 444zM629-133c183-3 270-141 270-338 0-183-88-297-264-301-154-4-299 123-299 266 0 185 113 376 293 373" id="be"/><path d="M285-465v-168h659v168H285" id="bf"/><g id="u"><use transform="matrix(0.009114583333333334,0,0,0.009114583333333334,0,0)" xlink:href="#aY"/><use transform="matrix(0.009114583333333334,0,0,0.009114583333333334,11.201822916666668,0)" xlink:href="#aZ"/><use transform="matrix(0.009114583333333334,0,0,0.009114583333333334,22.403645833333336,0)" xlink:href="#ba"/><use transform="matrix(0.009114583333333334,0,0,0.009114583333333334,33.60546875,0)" xlink:href="#bb"/><use transform="matrix(0.009114583333333334,0,0,0.009114583333333334,44.80729166666667,0)" xlink:href="#bc"/><use transform="matrix(0.009114583333333334,0,0,0.009114583333333334,56.00911458333334,0)" xlink:href="#bd"/><use transform="matrix(0.009114583333333334,0,0,0.009114583333333334,67.21093750000001,0)" xlink:href="#be"/><use transform="matrix(0.009114583333333334,0,0,0.009114583333333334,78.41276041666669,0)" xlink:href="#bf"/><use transform="matrix(0.009114583333333334,0,0,0.009114583333333334,89.61458333333336,0)" xlink:href="#aY"/></g><path fill="#333" d="M118-107v75H92v-75H18v-26h74v-75h26v75h74v26h-74" id="bg"/><use transform="matrix(0.05,0,0,0.05,0,0)" xlink:href="#bg" id="v"/><path fill="#333" d="M87 75C49 33 22-17 22-94c0-76 28-126 65-167h31c-38 41-64 92-64 168S80 34 118 75H87" id="bh"/><path fill="#333" d="M33-261c38 41 65 92 65 168S71 34 33 75H2C39 34 66-17 66-93S39-220 2-261h31" id="bi"/><g id="w"><use transform="matrix(0.05,0,0,0.05,0,0)" xlink:href="#aI"/><use transform="matrix(0.05,0,0,0.05,9,0)" xlink:href="#ak"/><use transform="matrix(0.05,0,0,0.05,19,0)" xlink:href="#aA"/><use transform="matrix(0.05,0,0,0.05,22.95,0)" xlink:href="#ax"/><use transform="matrix(0.05,0,0,0.05,26.899999999999995,0)" xlink:href="#aq"/><use transform="matrix(0.05,0,0,0.05,36.9,0)" xlink:href="#ak"/><use transform="matrix(0.05,0,0,0.05,46.9,0)" xlink:href="#ay"/><use transform="matrix(0.05,0,0,0.05,51.900000000000006,0)" xlink:href="#am"/><use transform="matrix(0.05,0,0,0.05,61.900000000000006,0)" xlink:href="#bh"/><use transform="matrix(0.05,0,0,0.05,67.85,0)" xlink:href="#bi"/></g><use transform="matrix(0.05,0,0,0.05,0,0)" xlink:href="#aw" id="x"/><g id="y"><use transform="matrix(0.05,0,0,0.05,0,0)" xlink:href="#ap"/><use transform="matrix(0.05,0,0,0.05,5.95,0)" xlink:href="#am"/><use transform="matrix(0.05,0,0,0.05,15.949999999999998,0)" xlink:href="#ay"/><use transform="matrix(0.05,0,0,0.05,20.95,0)" xlink:href="#aH"/><use transform="matrix(0.05,0,0,0.05,30.950000000000003,0)" xlink:href="#ap"/><use transform="matrix(0.05,0,0,0.05,36.9,0)" xlink:href="#au"/></g><path fill="#333" d="M115-194c53 0 69 39 70 98 0 66-23 100-70 100C84 3 66-7 56-30L54 0H23l1-261h32v101c10-23 28-34 59-34zm-8 174c40 0 45-34 45-75 0-40-5-75-45-74-42 0-51 32-51 76 0 43 10 73 51 73" id="bj"/><g id="z"><use transform="matrix(0.05,0,0,0.05,0,0)" xlink:href="#bj"/><use transform="matrix(0.05,0,0,0.05,10,0)" xlink:href="#ao"/><use transform="matrix(0.05,0,0,0.05,20,0)" xlink:href="#ao"/><use transform="matrix(0.05,0,0,0.05,30,0)" xlink:href="#aA"/><use transform="matrix(0.05,0,0,0.05,33.95,0)" xlink:href="#am"/><use transform="matrix(0.05,0,0,0.05,43.95,0)" xlink:href="#ak"/><use transform="matrix(0.05,0,0,0.05,53.95,0)" xlink:href="#au"/></g><path fill="#333" d="M145-31C134-9 116 4 85 4 32 4 16-35 15-94c0-59 17-99 70-100 32-1 48 14 60 33 0-11-1-24 2-32h30l-1 268h-32zM93-21c41 0 51-33 51-76s-8-73-50-73c-40 0-46 35-46 75s5 74 45 74" id="bk"/><path fill="#333" d="M135-143c-3-34-86-38-87 0 15 53 115 12 119 90S17 21 10-45l28-5c4 36 97 45 98 0-10-56-113-15-118-90-4-57 82-63 122-42 12 7 21 19 24 35" id="bl"/><g id="A"><use transform="matrix(0.05,0,0,0.05,0,0)" xlink:href="#az"/><use transform="matrix(0.05,0,0,0.05,9,0)" xlink:href="#ao"/><use transform="matrix(0.05,0,0,0.05,19,0)" xlink:href="#al"/><use transform="matrix(0.05,0,0,0.05,33.95,0)" xlink:href="#aC"/><use transform="matrix(0.05,0,0,0.05,43.95,0)" xlink:href="#ak"/><use transform="matrix(0.05,0,0,0.05,53.95,0)" xlink:href="#ap"/><use transform="matrix(0.05,0,0,0.05,59.900000000000006,0)" xlink:href="#am"/><use transform="matrix(0.05,0,0,0.05,69.9,0)" xlink:href="#aN"/><use transform="matrix(0.05,0,0,0.05,81.9,0)" xlink:href="#bk"/><use transform="matrix(0.05,0,0,0.05,91.9,0)" xlink:href="#aH"/><use transform="matrix(0.05,0,0,0.05,101.9,0)" xlink:href="#ak"/><use transform="matrix(0.05,0,0,0.05,111.9,0)" xlink:href="#aA"/><use transform="matrix(0.05,0,0,0.05,115.85000000000001,0)" xlink:href="#bl"/><use transform="matrix(0.05,0,0,0.05,124.85000000000001,0)" xlink:href="#bh"/><use transform="matrix(0.05,0,0,0.05,130.8,0)" xlink:href="#bi"/><use transform="matrix(0.05,0,0,0.05,136.75,0)" xlink:href="#aw"/></g><path fill="#333" d="M68-38c1 34 0 65-14 84H32c9-13 17-26 17-46H33v-38h35" id="bm"/><g id="B"><use transform="matrix(0.05,0,0,0.05,0,0)" xlink:href="#am"/><use transform="matrix(0.05,0,0,0.05,10,0)" xlink:href="#av"/><use transform="matrix(0.05,0,0,0.05,19,0)" xlink:href="#ax"/><use transform="matrix(0.05,0,0,0.05,22.95,0)" xlink:href="#bl"/><use transform="matrix(0.05,0,0,0.05,31.950000000000003,0)" xlink:href="#ay"/><use transform="matrix(0.05,0,0,0.05,36.95,0)" xlink:href="#bh"/><use transform="matrix(0.05,0,0,0.05,42.900000000000006,0)" xlink:href="#aG"/><use transform="matrix(0.05,0,0,0.05,52.900000000000006,0)" xlink:href="#ak"/><use transform="matrix(0.05,0,0,0.05,62.900000000000006,0)" xlink:href="#al"/><use transform="matrix(0.05,0,0,0.05,77.85000000000001,0)" xlink:href="#am"/><use transform="matrix(0.05,0,0,0.05,87.85000000000001,0)" xlink:href="#an"/><use transform="matrix(0.05,0,0,0.05,99.85000000000001,0)" xlink:href="#aW"/><use transform="matrix(0.05,0,0,0.05,113.85000000000001,0)" xlink:href="#ak"/><use transform="matrix(0.05,0,0,0.05,123.85000000000001,0)" xlink:href="#ap"/><use transform="matrix(0.05,0,0,0.05,129.8,0)" xlink:href="#aq"/><use transform="matrix(0.05,0,0,0.05,139.8,0)" xlink:href="#bm"/></g><g id="C"><use transform="matrix(0.05,0,0,0.05,0,0)" xlink:href="#ap"/><use transform="matrix(0.05,0,0,0.05,5.95,0)" xlink:href="#ao"/><use transform="matrix(0.05,0,0,0.05,15.949999999999998,0)" xlink:href="#as"/><use transform="matrix(0.05,0,0,0.05,28.899999999999995,0)" xlink:href="#at"/><use transform="matrix(0.05,0,0,0.05,33.9,0)" xlink:href="#au"/><use transform="matrix(0.05,0,0,0.05,43.9,0)" xlink:href="#aq"/><use transform="matrix(0.05,0,0,0.05,53.900000000000006,0)" xlink:href="#am"/><use transform="matrix(0.05,0,0,0.05,63.900000000000006,0)" xlink:href="#av"/><use transform="matrix(0.05,0,0,0.05,72.9,0)" xlink:href="#bm"/></g><g id="D"><use transform="matrix(0.05,0,0,0.05,0,0)" xlink:href="#az"/><use transform="matrix(0.05,0,0,0.05,9,0)" xlink:href="#ao"/><use transform="matrix(0.05,0,0,0.05,19,0)" xlink:href="#aA"/><use transform="matrix(0.05,0,0,0.05,22.95,0)" xlink:href="#at"/><use transform="matrix(0.05,0,0,0.05,27.950000000000003,0)" xlink:href="#au"/><use transform="matrix(0.05,0,0,0.05,37.95,0)" xlink:href="#aq"/><use transform="matrix(0.05,0,0,0.05,47.95,0)" xlink:href="#am"/><use transform="matrix(0.05,0,0,0.05,57.95,0)" xlink:href="#av"/><use transform="matrix(0.05,0,0,0.05,66.95,0)" xlink:href="#bi"/><use transform="matrix(0.05,0,0,0.05,72.9,0)" xlink:href="#aw"/></g><g id="E"><use transform="matrix(0.05,0,0,0.05,0,0)" xlink:href="#aq"/><use transform="matrix(0.05,0,0,0.05,10,0)" xlink:href="#am"/><use transform="matrix(0.05,0,0,0.05,20,0)" xlink:href="#aA"/><use transform="matrix(0.05,0,0,0.05,23.95,0)" xlink:href="#am"/><use transform="matrix(0.05,0,0,0.05,33.95,0)" xlink:href="#ay"/><use transform="matrix(0.05,0,0,0.05,38.95,0)" xlink:href="#am"/></g><g id="F"><use transform="matrix(0.05,0,0,0.05,0,0)" xlink:href="#bh"/><use transform="matrix(0.05,0,0,0.05,5.95,0)" xlink:href="#aG"/><use transform="matrix(0.05,0,0,0.05,15.949999999999998,0)" xlink:href="#ak"/><use transform="matrix(0.05,0,0,0.05,25.950000000000003,0)" xlink:href="#al"/><use transform="matrix(0.05,0,0,0.05,40.9,0)" xlink:href="#am"/><use transform="matrix(0.05,0,0,0.05,50.9,0)" xlink:href="#an"/><use transform="matrix(0.05,0,0,0.05,62.900000000000006,0)" xlink:href="#ao"/><use transform="matrix(0.05,0,0,0.05,72.9,0)" xlink:href="#ak"/><use transform="matrix(0.05,0,0,0.05,82.9,0)" xlink:href="#ap"/><use transform="matrix(0.05,0,0,0.05,88.85000000000001,0)" xlink:href="#aq"/><use transform="matrix(0.05,0,0,0.05,98.85000000000001,0)" xlink:href="#bi"/></g><g id="G"><use transform="matrix(0.05,0,0,0.05,0,0)" xlink:href="#bl"/><use transform="matrix(0.05,0,0,0.05,9,0)" xlink:href="#am"/><use transform="matrix(0.05,0,0,0.05,19,0)" xlink:href="#ay"/></g><g id="H"><use transform="matrix(0.05,0,0,0.05,0,0)" xlink:href="#aq"/><use transform="matrix(0.05,0,0,0.05,10,0)" xlink:href="#am"/><use transform="matrix(0.05,0,0,0.05,20,0)" xlink:href="#aJ"/><use transform="matrix(0.05,0,0,0.05,25,0)" xlink:href="#ak"/><use transform="matrix(0.05,0,0,0.05,35,0)" xlink:href="#aH"/><use transform="matrix(0.05,0,0,0.05,45,0)" xlink:href="#aA"/><use transform="matrix(0.05,0,0,0.05,48.95,0)" xlink:href="#ay"/><use transform="matrix(0.05,0,0,0.05,53.95,0)" xlink:href="#aS"/><use transform="matrix(0.05,0,0,0.05,64.6,0)" xlink:href="#ak"/><use transform="matrix(0.05,0,0,0.05,74.6,0)" xlink:href="#aA"/><use transform="matrix(0.05,0,0,0.05,78.55,0)" xlink:href="#aH"/><use transform="matrix(0.05,0,0,0.05,88.55,0)" xlink:href="#am"/><use transform="matrix(0.05,0,0,0.05,98.55,0)" xlink:href="#bl"/><use transform="matrix(0.05,0,0,0.05,107.55000000000001,0)" xlink:href="#bh"/><use transform="matrix(0.05,0,0,0.05,113.5,0)" xlink:href="#bi"/></g><g id="I"><use transform="matrix(0.05,0,0,0.05,0,0)" xlink:href="#aq"/><use transform="matrix(0.05,0,0,0.05,10,0)" xlink:href="#am"/><use transform="matrix(0.05,0,0,0.05,20,0)" xlink:href="#aA"/><use transform="matrix(0.05,0,0,0.05,23.95,0)" xlink:href="#am"/><use transform="matrix(0.05,0,0,0.05,33.95,0)" xlink:href="#ay"/><use transform="matrix(0.05,0,0,0.05,38.95,0)" xlink:href="#am"/><use transform="matrix(0.05,0,0,0.05,48.95,0)" xlink:href="#aV"/><use transform="matrix(0.05,0,0,0.05,61.900000000000006,0)" xlink:href="#ao"/><use transform="matrix(0.05,0,0,0.05,71.9,0)" xlink:href="#aA"/><use transform="matrix(0.05,0,0,0.05,75.85000000000001,0)" xlink:href="#bh"/><use transform="matrix(0.05,0,0,0.05,81.80000000000001,0)" xlink:href="#aG"/><use transform="matrix(0.05,0,0,0.05,91.80000000000001,0)" xlink:href="#ak"/><use transform="matrix(0.05,0,0,0.05,101.80000000000001,0)" xlink:href="#al"/><use transform="matrix(0.05,0,0,0.05,116.75,0)" xlink:href="#am"/><use transform="matrix(0.05,0,0,0.05,126.75,0)" xlink:href="#an"/><use transform="matrix(0.05,0,0,0.05,138.75,0)" xlink:href="#ao"/><use transform="matrix(0.05,0,0,0.05,148.75,0)" xlink:href="#ak"/><use transform="matrix(0.05,0,0,0.05,158.75,0)" xlink:href="#ap"/><use transform="matrix(0.05,0,0,0.05,164.7,0)" xlink:href="#aq"/><use transform="matrix(0.05,0,0,0.05,174.7,0)" xlink:href="#bi"/></g><g id="J"><use transform="matrix(0.05,0,0,0.05,0,0)" xlink:href="#aq"/><use transform="matrix(0.05,0,0,0.05,10,0)" xlink:href="#am"/><use transform="matrix(0.05,0,0,0.05,20,0)" xlink:href="#aA"/><use transform="matrix(0.05,0,0,0.05,23.95,0)" xlink:href="#am"/><use transform="matrix(0.05,0,0,0.05,33.95,0)" xlink:href="#ay"/><use transform="matrix(0.05,0,0,0.05,38.95,0)" xlink:href="#am"/><use transform="matrix(0.05,0,0,0.05,48.95,0)" xlink:href="#aR"/><use transform="matrix(0.05,0,0,0.05,61.900000000000006,0)" xlink:href="#ao"/><use transform="matrix(0.05,0,0,0.05,71.9,0)" xlink:href="#as"/><use transform="matrix(0.05,0,0,0.05,84.85000000000001,0)" xlink:href="#bh"/><use transform="matrix(0.05,0,0,0.05,90.80000000000001,0)" xlink:href="#aG"/><use transform="matrix(0.05,0,0,0.05,100.80000000000001,0)" xlink:href="#ak"/><use transform="matrix(0.05,0,0,0.05,110.80000000000001,0)" xlink:href="#al"/><use transform="matrix(0.05,0,0,0.05,125.75,0)" xlink:href="#am"/><use transform="matrix(0.05,0,0,0.05,135.75,0)" xlink:href="#an"/><use transform="matrix(0.05,0,0,0.05,147.75,0)" xlink:href="#ao"/><use transform="matrix(0.05,0,0,0.05,157.75,0)" xlink:href="#ak"/><use transform="matrix(0.05,0,0,0.05,167.75,0)" xlink:href="#ap"/><use transform="matrix(0.05,0,0,0.05,173.7,0)" xlink:href="#aq"/><use transform="matrix(0.05,0,0,0.05,183.7,0)" xlink:href="#bi"/></g><g id="K"><use transform="matrix(0.05,0,0,0.05,0,0)" xlink:href="#as"/><use transform="matrix(0.05,0,0,0.05,12.950000000000001,0)" xlink:href="#ap"/><use transform="matrix(0.05,0,0,0.05,18.900000000000002,0)" xlink:href="#ak"/><use transform="matrix(0.05,0,0,0.05,28.900000000000002,0)" xlink:href="#aC"/><use transform="matrix(0.05,0,0,0.05,38.900000000000006,0)" xlink:href="#aC"/><use transform="matrix(0.05,0,0,0.05,48.900000000000006,0)" xlink:href="#am"/><use transform="matrix(0.05,0,0,0.05,58.900000000000006,0)" xlink:href="#aq"/><use transform="matrix(0.05,0,0,0.05,68.9,0)" xlink:href="#bh"/><use transform="matrix(0.05,0,0,0.05,74.85000000000001,0)" xlink:href="#aG"/><use transform="matrix(0.05,0,0,0.05,84.85000000000001,0)" xlink:href="#ak"/><use transform="matrix(0.05,0,0,0.05,94.85000000000001,0)" xlink:href="#al"/><use transform="matrix(0.05,0,0,0.05,109.80000000000001,0)" xlink:href="#am"/><use transform="matrix(0.05,0,0,0.05,119.80000000000001,0)" xlink:href="#an"/><use transform="matrix(0.05,0,0,0.05,131.8,0)" xlink:href="#ao"/><use transform="matrix(0.05,0,0,0.05,141.8,0)" xlink:href="#ak"/><use transform="matrix(0.05,0,0,0.05,151.8,0)" xlink:href="#ap"/><use transform="matrix(0.05,0,0,0.05,157.75,0)" xlink:href="#aq"/><use transform="matrix(0.05,0,0,0.05,167.75,0)" xlink:href="#bi"/></g><g id="L"><use transform="matrix(0.05,0,0,0.05,0,0)" xlink:href="#az"/><use transform="matrix(0.05,0,0,0.05,9,0)" xlink:href="#ao"/><use transform="matrix(0.05,0,0,0.05,19,0)" xlink:href="#aA"/><use transform="matrix(0.05,0,0,0.05,22.95,0)" xlink:href="#ao"/><use transform="matrix(0.05,0,0,0.05,32.95,0)" xlink:href="#ap"/><use transform="matrix(0.05,0,0,0.05,38.900000000000006,0)" xlink:href="#an"/><use transform="matrix(0.05,0,0,0.05,50.900000000000006,0)" xlink:href="#ao"/><use transform="matrix(0.05,0,0,0.05,60.900000000000006,0)" xlink:href="#al"/><use transform="matrix(0.05,0,0,0.05,75.85000000000001,0)" xlink:href="#bj"/><use transform="matrix(0.05,0,0,0.05,85.85000000000001,0)" xlink:href="#bh"/><use transform="matrix(0.05,0,0,0.05,91.80000000000001,0)" xlink:href="#aG"/><use transform="matrix(0.05,0,0,0.05,101.80000000000001,0)" xlink:href="#ak"/><use transform="matrix(0.05,0,0,0.05,111.80000000000001,0)" xlink:href="#al"/><use transform="matrix(0.05,0,0,0.05,126.75,0)" xlink:href="#am"/><use transform="matrix(0.05,0,0,0.05,136.75,0)" xlink:href="#an"/><use transform="matrix(0.05,0,0,0.05,148.75,0)" xlink:href="#ao"/><use transform="matrix(0.05,0,0,0.05,158.75,0)" xlink:href="#ak"/><use transform="matrix(0.05,0,0,0.05,168.75,0)" xlink:href="#ap"/><use transform="matrix(0.05,0,0,0.05,174.7,0)" xlink:href="#aq"/><use transform="matrix(0.05,0,0,0.05,184.7,0)" xlink:href="#bi"/></g><g id="M"><use transform="matrix(0.05,0,0,0.05,0,0)" xlink:href="#aq"/><use transform="matrix(0.05,0,0,0.05,10,0)" xlink:href="#am"/><use transform="matrix(0.05,0,0,0.05,20,0)" xlink:href="#ay"/><use transform="matrix(0.05,0,0,0.05,25,0)" xlink:href="#am"/><use transform="matrix(0.05,0,0,0.05,35,0)" xlink:href="#ap"/><use transform="matrix(0.05,0,0,0.05,40.95,0)" xlink:href="#al"/><use transform="matrix(0.05,0,0,0.05,55.900000000000006,0)" xlink:href="#ax"/><use transform="matrix(0.05,0,0,0.05,59.85,0)" xlink:href="#au"/><use transform="matrix(0.05,0,0,0.05,69.85000000000001,0)" xlink:href="#ak"/><use transform="matrix(0.05,0,0,0.05,79.85000000000001,0)" xlink:href="#ay"/><use transform="matrix(0.05,0,0,0.05,84.85000000000001,0)" xlink:href="#am"/><use transform="matrix(0.05,0,0,0.05,94.85000000000001,0)" xlink:href="#aK"/><use transform="matrix(0.05,0,0,0.05,104.80000000000001,0)" xlink:href="#aB"/><use transform="matrix(0.05,0,0,0.05,113.80000000000001,0)" xlink:href="#aC"/><use transform="matrix(0.05,0,0,0.05,123.80000000000001,0)" xlink:href="#am"/><use transform="matrix(0.05,0,0,0.05,133.8,0)" xlink:href="#bh"/><use transform="matrix(0.05,0,0,0.05,139.75,0)" xlink:href="#aq"/><use transform="matrix(0.05,0,0,0.05,149.75,0)" xlink:href="#am"/><use transform="matrix(0.05,0,0,0.05,159.75,0)" xlink:href="#aA"/><use transform="matrix(0.05,0,0,0.05,163.7,0)" xlink:href="#am"/><use transform="matrix(0.05,0,0,0.05,173.7,0)" xlink:href="#ay"/><use transform="matrix(0.05,0,0,0.05,178.7,0)" xlink:href="#am"/><use transform="matrix(0.05,0,0,0.05,188.7,0)" xlink:href="#aq"/><use transform="matrix(0.05,0,0,0.05,198.7,0)" xlink:href="#aF"/><use transform="matrix(0.05,0,0,0.05,209.64999999999998,0)" xlink:href="#ax"/><use transform="matrix(0.05,0,0,0.05,213.59999999999997,0)" xlink:href="#aG"/><use transform="matrix(0.05,0,0,0.05,223.59999999999997,0)" xlink:href="#aH"/><use transform="matrix(0.05,0,0,0.05,233.59999999999997,0)" xlink:href="#ap"/><use transform="matrix(0.05,0,0,0.05,239.54999999999995,0)" xlink:href="#am"/><use transform="matrix(0.05,0,0,0.05,249.54999999999995,0)" xlink:href="#bi"/></g><g id="N"><use transform="matrix(0.05,0,0,0.05,0,0)" xlink:href="#bl"/><use transform="matrix(0.05,0,0,0.05,9,0)" xlink:href="#am"/><use transform="matrix(0.05,0,0,0.05,19,0)" xlink:href="#ay"/><use transform="matrix(0.05,0,0,0.05,24,0)" xlink:href="#aK"/><use transform="matrix(0.05,0,0,0.05,33.95,0)" xlink:href="#aB"/><use transform="matrix(0.05,0,0,0.05,42.95,0)" xlink:href="#aC"/><use transform="matrix(0.05,0,0,0.05,52.95,0)" xlink:href="#am"/><use transform="matrix(0.05,0,0,0.05,62.95,0)" xlink:href="#aT"/><use transform="matrix(0.05,0,0,0.05,75.9,0)" xlink:href="#ao"/><use transform="matrix(0.05,0,0,0.05,85.9,0)" xlink:href="#ap"/><use transform="matrix(0.05,0,0,0.05,91.85000000000001,0)" xlink:href="#ax"/><use transform="matrix(0.05,0,0,0.05,95.80000000000001,0)" xlink:href="#aE"/><use transform="matrix(0.05,0,0,0.05,104.80000000000001,0)" xlink:href="#ao"/><use transform="matrix(0.05,0,0,0.05,114.80000000000001,0)" xlink:href="#au"/><use transform="matrix(0.05,0,0,0.05,124.80000000000001,0)" xlink:href="#ay"/><use transform="matrix(0.05,0,0,0.05,129.8,0)" xlink:href="#ak"/><use transform="matrix(0.05,0,0,0.05,139.8,0)" xlink:href="#aA"/><use transform="matrix(0.05,0,0,0.05,143.75,0)" xlink:href="#aW"/><use transform="matrix(0.05,0,0,0.05,157.75,0)" xlink:href="#ap"/><use transform="matrix(0.05,0,0,0.05,163.7,0)" xlink:href="#aS"/><use transform="matrix(0.05,0,0,0.05,174.7,0)" xlink:href="#am"/><use transform="matrix(0.05,0,0,0.05,184.7,0)" xlink:href="#ap"/><use transform="matrix(0.05,0,0,0.05,190.64999999999998,0)" xlink:href="#ay"/><use transform="matrix(0.05,0,0,0.05,195.64999999999998,0)" xlink:href="#ax"/><use transform="matrix(0.05,0,0,0.05,199.59999999999997,0)" xlink:href="#az"/><use transform="matrix(0.05,0,0,0.05,208.59999999999997,0)" xlink:href="#ak"/><use transform="matrix(0.05,0,0,0.05,218.59999999999997,0)" xlink:href="#aA"/></g><g id="P"><use transform="matrix(0.05,0,0,0.05,0,0)" xlink:href="#aF"/><use transform="matrix(0.05,0,0,0.05,10.950000000000001,0)" xlink:href="#ax"/><use transform="matrix(0.05,0,0,0.05,14.9,0)" xlink:href="#aG"/><use transform="matrix(0.05,0,0,0.05,24.900000000000002,0)" xlink:href="#aH"/><use transform="matrix(0.05,0,0,0.05,34.900000000000006,0)" xlink:href="#ap"/><use transform="matrix(0.05,0,0,0.05,40.85000000000001,0)" xlink:href="#am"/><use transform="matrix(0.05,0,0,0.05,50.85000000000001,0)" xlink:href="#bl"/><use transform="matrix(0.05,0,0,0.05,59.85,0)" xlink:href="#bh"/><use transform="matrix(0.05,0,0,0.05,65.80000000000001,0)" xlink:href="#aq"/><use transform="matrix(0.05,0,0,0.05,75.80000000000001,0)" xlink:href="#am"/><use transform="matrix(0.05,0,0,0.05,85.80000000000001,0)" xlink:href="#aA"/><use transform="matrix(0.05,0,0,0.05,89.75000000000001,0)" xlink:href="#am"/><use transform="matrix(0.05,0,0,0.05,99.75000000000001,0)" xlink:href="#ay"/><use transform="matrix(0.05,0,0,0.05,104.75,0)" xlink:href="#am"/><use transform="matrix(0.05,0,0,0.05,114.75,0)" xlink:href="#aq"/><use transform="matrix(0.05,0,0,0.05,124.75,0)" xlink:href="#aK"/><use transform="matrix(0.05,0,0,0.05,134.70000000000002,0)" xlink:href="#aB"/><use transform="matrix(0.05,0,0,0.05,143.70000000000002,0)" xlink:href="#aC"/><use transform="matrix(0.05,0,0,0.05,153.70000000000002,0)" xlink:href="#am"/><use transform="matrix(0.05,0,0,0.05,163.70000000000002,0)" xlink:href="#bm"/></g><g id="Q"><use transform="matrix(0.05,0,0,0.05,0,0)" xlink:href="#aq"/><use transform="matrix(0.05,0,0,0.05,10,0)" xlink:href="#am"/><use transform="matrix(0.05,0,0,0.05,20,0)" xlink:href="#aA"/><use transform="matrix(0.05,0,0,0.05,23.95,0)" xlink:href="#am"/><use transform="matrix(0.05,0,0,0.05,33.95,0)" xlink:href="#ay"/><use transform="matrix(0.05,0,0,0.05,38.95,0)" xlink:href="#am"/><use transform="matrix(0.05,0,0,0.05,48.95,0)" xlink:href="#aq"/><use transform="matrix(0.05,0,0,0.05,58.95,0)" xlink:href="#aF"/><use transform="matrix(0.05,0,0,0.05,69.9,0)" xlink:href="#ax"/><use transform="matrix(0.05,0,0,0.05,73.85000000000001,0)" xlink:href="#aG"/><use transform="matrix(0.05,0,0,0.05,83.85000000000001,0)" xlink:href="#aH"/><use transform="matrix(0.05,0,0,0.05,93.85000000000001,0)" xlink:href="#ap"/><use transform="matrix(0.05,0,0,0.05,99.80000000000001,0)" xlink:href="#am"/><use transform="matrix(0.05,0,0,0.05,109.80000000000001,0)" xlink:href="#bi"/></g><g id="R"><use transform="matrix(0.05,0,0,0.05,0,0)" xlink:href="#ax"/><use transform="matrix(0.05,0,0,0.05,3.95,0)" xlink:href="#bl"/><use transform="matrix(0.05,0,0,0.05,12.949999999999998,0)" xlink:href="#aF"/><use transform="matrix(0.05,0,0,0.05,23.9,0)" xlink:href="#ax"/><use transform="matrix(0.05,0,0,0.05,27.849999999999994,0)" xlink:href="#ap"/><use transform="matrix(0.05,0,0,0.05,33.8,0)" xlink:href="#bl"/><use transform="matrix(0.05,0,0,0.05,42.8,0)" xlink:href="#ay"/><use transform="matrix(0.05,0,0,0.05,47.8,0)" xlink:href="#bh"/><use transform="matrix(0.05,0,0,0.05,53.75,0)" xlink:href="#ao"/><use transform="matrix(0.05,0,0,0.05,63.75,0)" xlink:href="#ay"/><use transform="matrix(0.05,0,0,0.05,68.75,0)" xlink:href="#aD"/><use transform="matrix(0.05,0,0,0.05,78.75,0)" xlink:href="#am"/><use transform="matrix(0.05,0,0,0.05,88.75,0)" xlink:href="#ap"/><use transform="matrix(0.05,0,0,0.05,94.7,0)" xlink:href="#aV"/><use transform="matrix(0.05,0,0,0.05,107.65,0)" xlink:href="#am"/><use transform="matrix(0.05,0,0,0.05,117.65,0)" xlink:href="#aA"/><use transform="matrix(0.05,0,0,0.05,121.60000000000001,0)" xlink:href="#aA"/><use transform="matrix(0.05,0,0,0.05,125.55000000000001,0)" xlink:href="#bi"/><use transform="matrix(0.05,0,0,0.05,131.5,0)" xlink:href="#aw"/></g><g id="S"><use transform="matrix(0.05,0,0,0.05,0,0)" xlink:href="#az"/><use transform="matrix(0.05,0,0,0.05,9,0)" xlink:href="#ak"/><use transform="matrix(0.05,0,0,0.05,19,0)" xlink:href="#au"/><use transform="matrix(0.05,0,0,0.05,29,0)" xlink:href="#aG"/><use transform="matrix(0.05,0,0,0.05,39,0)" xlink:href="#am"/><use transform="matrix(0.05,0,0,0.05,49,0)" xlink:href="#aV"/><use transform="matrix(0.05,0,0,0.05,61.95,0)" xlink:href="#am"/><use transform="matrix(0.05,0,0,0.05,71.95,0)" xlink:href="#aA"/><use transform="matrix(0.05,0,0,0.05,75.9,0)" xlink:href="#aA"/><use transform="matrix(0.05,0,0,0.05,79.85000000000001,0)" xlink:href="#bl"/><use transform="matrix(0.05,0,0,0.05,88.85000000000001,0)" xlink:href="#bh"/><use transform="matrix(0.05,0,0,0.05,94.80000000000001,0)" xlink:href="#ao"/><use transform="matrix(0.05,0,0,0.05,104.80000000000001,0)" xlink:href="#ay"/><use transform="matrix(0.05,0,0,0.05,109.80000000000001,0)" xlink:href="#aD"/><use transform="matrix(0.05,0,0,0.05,119.80000000000001,0)" xlink:href="#am"/><use transform="matrix(0.05,0,0,0.05,129.8,0)" xlink:href="#ap"/><use transform="matrix(0.05,0,0,0.05,135.75,0)" xlink:href="#aV"/><use transform="matrix(0.05,0,0,0.05,148.7,0)" xlink:href="#am"/><use transform="matrix(0.05,0,0,0.05,158.7,0)" xlink:href="#aA"/><use transform="matrix(0.05,0,0,0.05,162.64999999999998,0)" xlink:href="#aA"/><use transform="matrix(0.05,0,0,0.05,166.59999999999997,0)" xlink:href="#bi"/></g><g id="V"><use transform="matrix(0.05,0,0,0.05,0,0)" xlink:href="#aV"/><use transform="matrix(0.05,0,0,0.05,12.950000000000001,0)" xlink:href="#am"/><use transform="matrix(0.05,0,0,0.05,22.950000000000003,0)" xlink:href="#aA"/><use transform="matrix(0.05,0,0,0.05,26.900000000000002,0)" xlink:href="#aA"/></g><g id="W"><use transform="matrix(0.05,0,0,0.05,0,0)" xlink:href="#aJ"/><use transform="matrix(0.05,0,0,0.05,5,0)" xlink:href="#ax"/><use transform="matrix(0.05,0,0,0.05,8.95,0)" xlink:href="#aG"/><use transform="matrix(0.05,0,0,0.05,18.95,0)" xlink:href="#aH"/><use transform="matrix(0.05,0,0,0.05,28.950000000000003,0)" xlink:href="#ap"/><use transform="matrix(0.05,0,0,0.05,34.9,0)" xlink:href="#am"/><use transform="matrix(0.05,0,0,0.05,44.9,0)" xlink:href="#aw"/></g><path fill="#333" d="M205 0l-28-72H64L36 0H1l101-248h38L239 0h-34zm-38-99l-47-123c-12 45-31 82-46 123h93" id="bn"/><g id="X"><use transform="matrix(0.05,0,0,0.05,0,0)" xlink:href="#az"/><use transform="matrix(0.05,0,0,0.05,9,0)" xlink:href="#am"/><use transform="matrix(0.05,0,0,0.05,19,0)" xlink:href="#aA"/><use transform="matrix(0.05,0,0,0.05,22.95,0)" xlink:href="#aA"/><use transform="matrix(0.05,0,0,0.05,26.899999999999995,0)" xlink:href="#bn"/><use transform="matrix(0.05,0,0,0.05,38.9,0)" xlink:href="#ap"/><use transform="matrix(0.05,0,0,0.05,44.85,0)" xlink:href="#ap"/><use transform="matrix(0.05,0,0,0.05,50.800000000000004,0)" xlink:href="#ak"/><use transform="matrix(0.05,0,0,0.05,60.800000000000004,0)" xlink:href="#aB"/></g><g id="Y"><use transform="matrix(0.05,0,0,0.05,0,0)" xlink:href="#ar"/><use transform="matrix(0.05,0,0,0.05,5.95,0)" xlink:href="#az"/><use transform="matrix(0.05,0,0,0.05,14.949999999999998,0)" xlink:href="#ao"/><use transform="matrix(0.05,0,0,0.05,24.95,0)" xlink:href="#aA"/><use transform="matrix(0.05,0,0,0.05,28.899999999999995,0)" xlink:href="#ao"/><use transform="matrix(0.05,0,0,0.05,38.9,0)" xlink:href="#ap"/><use transform="matrix(0.05,0,0,0.05,44.85,0)" xlink:href="#aw"/></g><g id="aa"><use transform="matrix(0.05,0,0,0.05,0,0)" xlink:href="#az"/><use transform="matrix(0.05,0,0,0.05,9,0)" xlink:href="#ao"/><use transform="matrix(0.05,0,0,0.05,19,0)" xlink:href="#al"/><use transform="matrix(0.05,0,0,0.05,33.95,0)" xlink:href="#bj"/><use transform="matrix(0.05,0,0,0.05,43.95,0)" xlink:href="#ax"/><use transform="matrix(0.05,0,0,0.05,47.900000000000006,0)" xlink:href="#au"/><use transform="matrix(0.05,0,0,0.05,57.900000000000006,0)" xlink:href="#am"/><use transform="matrix(0.05,0,0,0.05,67.9,0)" xlink:href="#bh"/><use transform="matrix(0.05,0,0,0.05,73.85000000000001,0)" xlink:href="#ao"/><use transform="matrix(0.05,0,0,0.05,83.85000000000001,0)" xlink:href="#ay"/><use transform="matrix(0.05,0,0,0.05,88.85000000000001,0)" xlink:href="#aD"/><use transform="matrix(0.05,0,0,0.05,98.85000000000001,0)" xlink:href="#am"/><use transform="matrix(0.05,0,0,0.05,108.85000000000001,0)" xlink:href="#ap"/><use transform="matrix(0.05,0,0,0.05,114.80000000000001,0)" xlink:href="#aF"/><use transform="matrix(0.05,0,0,0.05,125.75,0)" xlink:href="#ax"/><use transform="matrix(0.05,0,0,0.05,129.70000000000002,0)" xlink:href="#aG"/><use transform="matrix(0.05,0,0,0.05,139.70000000000002,0)" xlink:href="#aH"/><use transform="matrix(0.05,0,0,0.05,149.70000000000002,0)" xlink:href="#ap"/><use transform="matrix(0.05,0,0,0.05,155.65,0)" xlink:href="#am"/><use transform="matrix(0.05,0,0,0.05,165.65,0)" xlink:href="#bi"/><use transform="matrix(0.05,0,0,0.05,171.6,0)" xlink:href="#aw"/></g><g id="ab"><use transform="matrix(0.05,0,0,0.05,0,0)" xlink:href="#ak"/><use transform="matrix(0.05,0,0,0.05,10,0)" xlink:href="#aq"/><use transform="matrix(0.05,0,0,0.05,20,0)" xlink:href="#aq"/><use transform="matrix(0.05,0,0,0.05,30,0)" xlink:href="#aV"/><use transform="matrix(0.05,0,0,0.05,42.95,0)" xlink:href="#am"/><use transform="matrix(0.05,0,0,0.05,52.95,0)" xlink:href="#aA"/><use transform="matrix(0.05,0,0,0.05,56.900000000000006,0)" xlink:href="#aA"/><use transform="matrix(0.05,0,0,0.05,60.85,0)" xlink:href="#bh"/><use transform="matrix(0.05,0,0,0.05,66.80000000000001,0)" xlink:href="#aV"/><use transform="matrix(0.05,0,0,0.05,79.75000000000001,0)" xlink:href="#am"/><use transform="matrix(0.05,0,0,0.05,89.75000000000001,0)" xlink:href="#aA"/><use transform="matrix(0.05,0,0,0.05,93.70000000000002,0)" xlink:href="#aA"/><use transform="matrix(0.05,0,0,0.05,97.65000000000002,0)" xlink:href="#bi"/></g><g id="ac"><use transform="matrix(0.05,0,0,0.05,0,0)" xlink:href="#ax"/><use transform="matrix(0.05,0,0,0.05,3.95,0)" xlink:href="#bl"/><use transform="matrix(0.05,0,0,0.05,12.949999999999998,0)" xlink:href="#aX"/><use transform="matrix(0.05,0,0,0.05,22.95,0)" xlink:href="#ak"/><use transform="matrix(0.05,0,0,0.05,32.95,0)" xlink:href="#bl"/><use transform="matrix(0.05,0,0,0.05,41.95,0)" xlink:href="#ay"/><use transform="matrix(0.05,0,0,0.05,46.95,0)" xlink:href="#aW"/><use transform="matrix(0.05,0,0,0.05,60.95,0)" xlink:href="#ap"/><use transform="matrix(0.05,0,0,0.05,66.9,0)" xlink:href="#aF"/><use transform="matrix(0.05,0,0,0.05,77.85000000000001,0)" xlink:href="#ax"/><use transform="matrix(0.05,0,0,0.05,81.80000000000001,0)" xlink:href="#ap"/><use transform="matrix(0.05,0,0,0.05,87.75000000000001,0)" xlink:href="#bl"/><use transform="matrix(0.05,0,0,0.05,96.75000000000001,0)" xlink:href="#ay"/><use transform="matrix(0.05,0,0,0.05,101.75000000000001,0)" xlink:href="#aV"/><use transform="matrix(0.05,0,0,0.05,114.7,0)" xlink:href="#am"/><use transform="matrix(0.05,0,0,0.05,124.7,0)" xlink:href="#aA"/><use transform="matrix(0.05,0,0,0.05,128.65,0)" xlink:href="#aA"/><use transform="matrix(0.05,0,0,0.05,132.6,0)" xlink:href="#bh"/><use transform="matrix(0.05,0,0,0.05,138.54999999999998,0)" xlink:href="#aV"/><use transform="matrix(0.05,0,0,0.05,151.49999999999997,0)" xlink:href="#am"/><use transform="matrix(0.05,0,0,0.05,161.49999999999997,0)" xlink:href="#aA"/><use transform="matrix(0.05,0,0,0.05,165.44999999999996,0)" xlink:href="#aA"/><use transform="matrix(0.05,0,0,0.05,169.39999999999995,0)" xlink:href="#bi"/><use transform="matrix(0.05,0,0,0.05,175.34999999999994,0)" xlink:href="#aw"/></g><g id="ad"><use transform="matrix(0.05,0,0,0.05,0,0)" xlink:href="#aC"/><use transform="matrix(0.05,0,0,0.05,10,0)" xlink:href="#ap"/><use transform="matrix(0.05,0,0,0.05,15.949999999999998,0)" xlink:href="#ax"/><use transform="matrix(0.05,0,0,0.05,19.9,0)" xlink:href="#ao"/><use transform="matrix(0.05,0,0,0.05,29.899999999999995,0)" xlink:href="#ap"/><use transform="matrix(0.05,0,0,0.05,35.85,0)" xlink:href="#ax"/><use transform="matrix(0.05,0,0,0.05,39.800000000000004,0)" xlink:href="#ay"/><use transform="matrix(0.05,0,0,0.05,44.800000000000004,0)" xlink:href="#aB"/><use transform="matrix(0.05,0,0,0.05,53.800000000000004,0)" xlink:href="#aF"/><use transform="matrix(0.05,0,0,0.05,64.75,0)" xlink:href="#ax"/><use transform="matrix(0.05,0,0,0.05,68.7,0)" xlink:href="#aG"/><use transform="matrix(0.05,0,0,0.05,78.7,0)" xlink:href="#aH"/><use transform="matrix(0.05,0,0,0.05,88.7,0)" xlink:href="#ap"/><use transform="matrix(0.05,0,0,0.05,94.65,0)" xlink:href="#am"/></g><g id="ae"><use transform="matrix(0.05,0,0,0.05,0,0)" xlink:href="#bh"/><use transform="matrix(0.05,0,0,0.05,5.95,0)" xlink:href="#aJ"/><use transform="matrix(0.05,0,0,0.05,10.95,0)" xlink:href="#ax"/><use transform="matrix(0.05,0,0,0.05,14.899999999999999,0)" xlink:href="#aG"/><use transform="matrix(0.05,0,0,0.05,24.9,0)" xlink:href="#aH"/><use transform="matrix(0.05,0,0,0.05,34.9,0)" xlink:href="#ap"/><use transform="matrix(0.05,0,0,0.05,40.85,0)" xlink:href="#am"/><use transform="matrix(0.05,0,0,0.05,50.85,0)" xlink:href="#bl"/><use transform="matrix(0.05,0,0,0.05,59.85,0)" xlink:href="#bn"/><use transform="matrix(0.05,0,0,0.05,71.85,0)" xlink:href="#ap"/><use transform="matrix(0.05,0,0,0.05,77.8,0)" xlink:href="#ap"/><use transform="matrix(0.05,0,0,0.05,83.75,0)" xlink:href="#ak"/><use transform="matrix(0.05,0,0,0.05,93.75,0)" xlink:href="#aB"/><use transform="matrix(0.05,0,0,0.05,102.75,0)" xlink:href="#bi"/><use transform="matrix(0.05,0,0,0.05,108.7,0)" xlink:href="#aw"/></g><g id="af"><use transform="matrix(0.05,0,0,0.05,0,0)" xlink:href="#ap"/><use transform="matrix(0.05,0,0,0.05,5.95,0)" xlink:href="#am"/><use transform="matrix(0.05,0,0,0.05,15.949999999999998,0)" xlink:href="#ay"/><use transform="matrix(0.05,0,0,0.05,20.95,0)" xlink:href="#aH"/><use transform="matrix(0.05,0,0,0.05,30.950000000000003,0)" xlink:href="#ap"/><use transform="matrix(0.05,0,0,0.05,36.9,0)" xlink:href="#au"/></g><g id="ag"><use transform="matrix(0.05,0,0,0.05,0,0)" xlink:href="#aG"/><use transform="matrix(0.05,0,0,0.05,10,0)" xlink:href="#am"/><use transform="matrix(0.05,0,0,0.05,20,0)" xlink:href="#au"/><use transform="matrix(0.05,0,0,0.05,30,0)" xlink:href="#am"/><use transform="matrix(0.05,0,0,0.05,40,0)" xlink:href="#ap"/><use transform="matrix(0.05,0,0,0.05,45.95,0)" xlink:href="#ak"/><use transform="matrix(0.05,0,0,0.05,55.95,0)" xlink:href="#ay"/><use transform="matrix(0.05,0,0,0.05,60.95,0)" xlink:href="#am"/><use transform="matrix(0.05,0,0,0.05,70.95,0)" xlink:href="#aO"/><use transform="matrix(0.05,0,0,0.05,82.95,0)" xlink:href="#aC"/><use transform="matrix(0.05,0,0,0.05,92.95,0)" xlink:href="#am"/><use transform="matrix(0.05,0,0,0.05,102.95,0)" xlink:href="#az"/><use transform="matrix(0.05,0,0,0.05,111.95,0)" xlink:href="#ax"/><use transform="matrix(0.05,0,0,0.05,115.9,0)" xlink:href="#ak"/><use transform="matrix(0.05,0,0,0.05,125.9,0)" xlink:href="#aA"/><use transform="matrix(0.05,0,0,0.05,129.85,0)" xlink:href="#aV"/><use transform="matrix(0.05,0,0,0.05,142.79999999999998,0)" xlink:href="#am"/><use transform="matrix(0.05,0,0,0.05,152.79999999999998,0)" xlink:href="#aA"/><use transform="matrix(0.05,0,0,0.05,156.74999999999997,0)" xlink:href="#aA"/><use transform="matrix(0.05,0,0,0.05,160.69999999999996,0)" xlink:href="#bh"/><use transform="matrix(0.05,0,0,0.05,166.64999999999995,0)" xlink:href="#bi"/><use transform="matrix(0.05,0,0,0.05,172.59999999999994,0)" xlink:href="#aw"/></g><g id="ah"><use transform="matrix(0.05,0,0,0.05,0,0)" xlink:href="#aV"/><use transform="matrix(0.05,0,0,0.05,12.950000000000001,0)" xlink:href="#am"/><use transform="matrix(0.05,0,0,0.05,22.950000000000003,0)" xlink:href="#aA"/><use transform="matrix(0.05,0,0,0.05,26.900000000000002,0)" xlink:href="#aA"/></g><g id="ai"><use transform="matrix(0.05,0,0,0.05,0,0)" xlink:href="#aF"/><use transform="matrix(0.05,0,0,0.05,10.950000000000001,0)" xlink:href="#ax"/><use transform="matrix(0.05,0,0,0.05,14.9,0)" xlink:href="#aG"/><use transform="matrix(0.05,0,0,0.05,24.900000000000002,0)" xlink:href="#aH"/><use transform="matrix(0.05,0,0,0.05,34.900000000000006,0)" xlink:href="#ap"/><use transform="matrix(0.05,0,0,0.05,40.85000000000001,0)" xlink:href="#am"/></g></defs></g></svg>